# xmcd
#
# Track frame offsets:
# 150
# 14268
# 27910
# 42563
# 55003
# 69305
# 84408
# 96573
# 109783
# 125513
# 139078
# 153453
# 164955
# 179755
# 192065
# 207933
# 224460
# 241128
#
# Disc length: 3402 seconds
#
#
# Revision: 1
# Processed by: cddbd v1.5.2PL0 Copyright (c) Steve Scherf et al.
# Submitted via: FreeRIP 2.951 
#
DISCID=080d4812
DTITLE=Ricardo e João Fernando - Destino - Ao Vivo
DYEAR=2011
DGENRE=Country
TTITLE0=Top do Brasil
TTITLE1=Relogio
TTITLE2=Pode ser ou ta dificil?
TTITLE3=So saio com as Top
TTITLE4=Sol do  meio dia
TTITLE5=Meu velho companheiro
TTITLE6=O mundo gira
TTITLE7=Fala tchau pra mim
TTITLE8=Se o mundo acabasse
TTITLE9=Voce é tudo
TTITLE10=Ce que larga da sua muie
TTITLE11=Poderosa
TTITLE12=Em cada amanhecer
TTITLE13=Sem querer querendo
TTITLE14=Anjo bom
TTITLE15=Pega meu beijo
TTITLE16=Destino
TTITLE17=Pe na bunda
EXTD=Ricardo and João Fernando - Destino - Ao Vivo
EXTT0=
EXTT1=
EXTT2=
EXTT3=
EXTT4=
EXTT5=
EXTT6=
EXTT7=
EXTT8=
EXTT9=
EXTT10=
EXTT11=
EXTT12=
EXTT13=
EXTT14=
EXTT15=
EXTT16=
EXTT17=
PLAYORDER=
